<svg width="100" height="101" viewBox="0 0 100 101" fill="none" xmlns="http://www.w3.org/2000/svg">
<path d="M50 9.31007C39.6375 9.31007 30.1875 12.5434 23.2167 17.9767C16.2458 23.4059 11.7167 31.1809 11.7167 39.8267V42.9517C4.80417 46.4559 0 55.6559 0 66.4392C0 80.2392 7.85 91.4392 17.9667 91.4392V39.8226C17.9667 33.3476 21.3208 27.3892 27.075 22.9059C32.8292 18.4184 40.9542 15.5517 50 15.5517C59.0417 15.5517 67.1667 18.4184 72.925 22.9017C78.675 27.3892 82.0333 33.3476 82.0333 39.8184V91.4309C92.15 91.4309 100 80.2351 100 66.4309C100 55.6517 95.2 46.4517 88.2792 42.9476V39.8226C88.2792 31.1767 83.7542 23.4059 76.7792 17.9726C69.8125 12.5392 60.3625 9.30591 50 9.30591V9.31007ZM50 34.9476L45.3125 71.1267L40.625 38.3101L38.2833 66.4351L36.7167 63.3101L35.1542 44.5601L34.375 63.3101L32.0292 68.7809L30.4708 50.0309L28.9042 64.8726L26.5625 60.9684V71.9059L24.2167 63.1142V43.7809C23.148 42.8035 21.7604 42.2482 20.3125 42.2184V91.4351C21.875 91.4351 23.4375 90.6559 24.2167 89.0934V75.0309L25 75.8101L27.3458 83.6226L28.125 74.2476L30.4708 85.9684V71.1267L32.0292 75.0309L34.375 85.9684V71.1267L35.9375 72.6851L38.2833 85.9684L40.625 67.9976L45.7917 88.2476L46.0917 75.8101L47.6542 71.1267L49.2208 90.6559L53.9042 71.1267L55.4667 87.5309L59.375 70.3434L63.2833 89.0934L64.0625 75.0309L66.4042 70.3434L67.1875 88.3142L71.0958 71.1267L73.4375 78.9392L74.2208 71.9059L75.7792 75.0309V89.0934C76.5625 90.6559 78.125 91.4351 79.6875 91.4351V42.2184C78.125 42.2184 76.5625 43.0017 75.7792 43.7809V63.8351L74.2208 68.0017L73.4375 54.7184L71.875 64.8726L70.3125 61.7476L69.5292 50.8101L65.625 65.6559L64.8417 62.5309L62.5 39.0934L60.1583 59.4059L58.5917 65.6559L55.4667 44.5642L52.3417 62.5309L50.7792 67.2184L50 34.9476Z" fill="currentColor"/>
</svg>
