<svg width="100" height="30" viewBox="0 0 100 30" fill="none" xmlns="http://www.w3.org/2000/svg">
<g clip-path="url(#clip0_44_2196)">
<path d="M0.650781 23.4056V12.2765H14.5461V11.6255H0.650781V1.47256H15.4246V0.821777H0V24.0563H15.5547V23.4056H0.650977H0.650781ZM28.0834 7.32998L22.3236 14.9122L16.6938 7.33018H15.8477L21.933 15.4005L15.2617 24.0562H16.0428L22.3232 15.8882L28.6363 24.0562H29.4498L22.7463 15.4001L28.8641 7.32978H28.0832L28.0834 7.32998ZM31.4025 29.7837V19.3706H31.4676C31.8582 20.8892 32.6283 22.1095 33.7781 23.0315C34.9279 23.9534 36.3922 24.4146 38.1711 24.4146C39.3209 24.4146 40.3406 24.1813 41.2301 23.7149C42.1195 23.2485 42.8625 22.614 43.4592 21.8112C44.0557 21.0085 44.5113 20.0757 44.826 19.0126C45.1404 17.9497 45.2979 16.8323 45.2979 15.661C45.2979 14.4026 45.135 13.2419 44.8096 12.179C44.4842 11.1159 44.0123 10.1938 43.3941 9.41299C42.7758 8.63193 42.0273 8.02432 41.1486 7.59072C40.2701 7.15674 39.2775 6.93975 38.1711 6.93975C37.325 6.93975 36.5387 7.06455 35.8119 7.31397C35.0852 7.56357 34.4398 7.91592 33.8758 8.37158C33.3084 8.83075 32.8146 9.37393 32.4113 9.98232C31.9992 10.6007 31.6846 11.2786 31.4676 12.0163H31.4025V7.32998H30.7518V29.7837H31.4025ZM38.1711 23.796C36.132 23.796 34.4939 23.0964 33.2574 21.6972C32.0209 20.298 31.4025 18.2856 31.4025 15.6606C31.4025 14.5759 31.5545 13.5454 31.8582 12.5692C32.1619 11.5931 32.6012 10.736 33.176 9.99854C33.751 9.26084 34.4615 8.6751 35.3074 8.24131C36.1535 7.80732 37.1082 7.59033 38.1711 7.59033C39.2559 7.59033 40.2051 7.80732 41.0186 8.24131C41.832 8.6751 42.5047 9.26631 43.0361 10.0147C43.5676 10.7632 43.9689 11.6202 44.2402 12.5854C44.5113 13.5509 44.6469 14.5759 44.6469 15.6606C44.6469 16.637 44.5223 17.6079 44.2727 18.5731C44.0232 19.5386 43.6381 20.4063 43.1174 21.1767C42.5969 21.9466 41.9299 22.5757 41.1162 23.064C40.3025 23.552 39.3209 23.796 38.1711 23.796ZM48.8773 24.0563V14.5868C48.8773 13.6757 49.0074 12.786 49.268 11.9185C49.5281 11.0507 49.9295 10.2858 50.4719 9.62432C51.0143 8.9626 51.7029 8.44189 52.5383 8.06221C53.3734 7.68252 54.366 7.52529 55.5158 7.59033V6.93955C54.5178 6.91807 53.6447 7.02627 52.8963 7.26494C52.1477 7.50361 51.5023 7.829 50.96 8.24131C50.4176 8.65342 49.9838 9.13603 49.6584 9.68936C49.3333 10.2418 49.0919 10.8395 48.9424 11.4628H48.8773V7.32998H48.2266V24.0565H48.8773V24.0563ZM56.3293 15.8233H70.3221C70.3656 14.6735 70.2518 13.5673 69.9805 12.5042C69.7094 11.4411 69.2754 10.4974 68.6789 9.67314C68.0822 8.84873 67.3121 8.18701 66.3684 7.68799C65.4246 7.18896 64.302 6.93955 63.0004 6.93955C62.0674 6.93955 61.1562 7.13486 60.2668 7.52549C59.3773 7.91592 58.5963 8.48525 57.9238 9.23369C57.2514 9.98213 56.709 10.8987 56.2969 11.9837C55.8848 13.0683 55.6785 14.3048 55.6785 15.6933C55.6785 16.9298 55.8195 18.0851 56.1016 19.1589C56.3836 20.2327 56.8174 21.1657 57.4031 21.9575C57.9891 22.7493 58.743 23.3622 59.6648 23.796C60.5867 24.23 61.6986 24.436 63.0004 24.4144C64.9094 24.4144 66.5148 23.8772 67.8164 22.8036C69.1182 21.7296 69.8883 20.2165 70.127 18.264H69.4762C69.1941 20.1081 68.4727 21.4911 67.3121 22.413C66.1514 23.3351 64.6926 23.796 62.9352 23.796C61.742 23.796 60.7332 23.5899 59.9088 23.1778C59.0846 22.7657 58.4119 22.2015 57.8912 21.4856C57.3707 20.7696 56.9855 19.929 56.7361 18.9636C56.4865 17.9983 56.351 16.9515 56.3293 15.8233ZM69.6713 15.1726H56.3295C56.3943 14.0011 56.6113 12.9489 56.9801 12.0161C57.349 11.0831 57.8316 10.2858 58.4283 9.62432C59.0248 8.9626 59.7191 8.4583 60.5109 8.11103C61.3027 7.76396 62.1543 7.59033 63.0654 7.59033C64.1502 7.59033 65.1045 7.79111 65.9291 8.19248C66.7533 8.59385 67.4422 9.1417 67.9955 9.83584C68.5486 10.53 68.9662 11.3382 69.2482 12.2601C69.5303 13.1821 69.6713 14.153 69.6713 15.1726ZM83.827 12.2765H84.4777C84.4777 10.4106 83.9354 9.05478 82.8508 8.20869C81.7658 7.3626 80.2906 6.93955 78.425 6.93955C77.3836 6.93955 76.5051 7.06982 75.7891 7.33018C75.0732 7.59033 74.4875 7.92666 74.0318 8.33877C73.5764 8.75088 73.251 9.20654 73.0557 9.70557C72.8604 10.2046 72.7627 10.6819 72.7627 11.1374C72.7627 12.0485 72.9254 12.7753 73.251 13.3177C73.5764 13.8601 74.0861 14.2831 74.7803 14.5868C75.2576 14.8036 75.7998 14.9989 76.4074 15.1728C77.0148 15.3462 77.7199 15.5306 78.5227 15.7257C79.2385 15.8995 79.9436 16.0729 80.6379 16.2464C81.332 16.42 81.9449 16.6532 82.4764 16.946C83.008 17.239 83.4418 17.6132 83.7781 18.0688C84.1143 18.5243 84.2824 19.121 84.2824 19.8585C84.2824 20.5745 84.1145 21.1819 83.7781 21.6808C83.4447 22.1772 83.0058 22.5939 82.4928 22.9013C81.9721 23.2157 81.3916 23.4435 80.7518 23.5845C80.1117 23.7255 79.4881 23.796 78.8807 23.796C76.9064 23.796 75.3932 23.3567 74.341 22.4782C73.2889 21.5995 72.7629 20.2165 72.7629 18.329H72.1119C72.1119 20.4335 72.6814 21.9737 73.8203 22.9501C74.9594 23.9263 76.6461 24.4144 78.8807 24.4144C79.5965 24.4144 80.3178 24.3329 81.0447 24.1702C81.7713 24.0075 82.4223 23.7419 82.9971 23.3729C83.567 23.0092 84.0457 22.5194 84.3963 21.9413C84.7543 21.3554 84.9334 20.6396 84.9334 19.7935C84.9334 18.9907 84.776 18.3399 84.4615 17.8409C84.1469 17.3421 83.7348 16.9298 83.2248 16.6044C82.715 16.279 82.1402 16.0241 81.5002 15.8397C80.8566 15.6543 80.2111 15.4752 79.5639 15.3026C78.7674 15.0937 77.9701 14.8876 77.1721 14.6845C76.4889 14.5108 75.8543 14.3048 75.2686 14.0661C74.7045 13.8274 74.2543 13.4858 73.918 13.0411C73.5816 12.5964 73.4137 11.9618 73.4137 11.1374C73.4137 10.9856 73.457 10.7144 73.5438 10.3239C73.6305 9.9333 73.8367 9.5374 74.1621 9.13603C74.4875 8.73486 74.9863 8.37686 75.659 8.06221C76.3314 7.74775 77.2535 7.59033 78.425 7.59033C79.2277 7.59033 79.9598 7.67725 80.6215 7.85068C81.2832 8.02432 81.8527 8.30088 82.3299 8.68057C82.8072 9.06025 83.176 9.54287 83.4363 10.1286C83.6967 10.7146 83.827 11.4304 83.827 12.2765ZM98.8936 12.2765H99.5443C99.5443 10.4106 99.0022 9.05478 97.9174 8.20869C96.8326 7.3626 95.3574 6.93955 93.4916 6.93955C92.4504 6.93955 91.5717 7.06982 90.8559 7.33018C90.1398 7.59033 89.5541 7.92666 89.0986 8.33877C88.643 8.75088 88.3176 9.20654 88.1223 9.70557C87.927 10.2046 87.8295 10.6819 87.8295 11.1374C87.8295 12.0485 87.9922 12.7753 88.3178 13.3177C88.643 13.8601 89.1529 14.2831 89.8471 14.5868C90.3244 14.8036 90.8666 14.9989 91.474 15.1728C92.0814 15.3462 92.7865 15.5306 93.5893 15.7257C94.3053 15.8995 95.0104 16.0729 95.7045 16.2464C96.3988 16.42 97.0115 16.6532 97.5432 16.946C98.0746 17.239 98.5086 17.6132 98.8447 18.0688C99.1811 18.5243 99.3492 19.121 99.3492 19.8585C99.3492 20.5745 99.1811 21.1819 98.8447 21.6808C98.5113 22.1772 98.0725 22.5939 97.5596 22.9013C97.0387 23.2157 96.4584 23.4435 95.8184 23.5845C95.1785 23.7255 94.5547 23.796 93.9473 23.796C91.973 23.796 90.46 23.3567 89.4078 22.4782C88.3555 21.5995 87.8295 20.2165 87.8295 18.329H87.1787C87.1787 20.4335 87.748 21.9737 88.8871 22.9501C90.026 23.9263 91.7127 24.4144 93.9473 24.4144C94.6633 24.4144 95.3846 24.3329 96.1113 24.1702C96.8379 24.0075 97.4889 23.7419 98.0639 23.3729C98.6338 23.0092 99.1125 22.5194 99.4631 21.9413C99.8211 21.3554 100 20.6396 100 19.7935C100 18.9907 99.8428 18.3399 99.5281 17.8409C99.2137 17.3421 98.8016 16.9298 98.2916 16.6044C97.7818 16.279 97.2068 16.0241 96.567 15.8397C95.9233 15.6543 95.2779 15.4752 94.6307 15.3026C93.8342 15.0937 93.0369 14.8876 92.2389 14.6845C91.5555 14.5108 90.9209 14.3048 90.3352 14.0661C89.7711 13.8274 89.3209 13.4858 88.9848 13.0411C88.6484 12.5964 88.4803 11.9618 88.4803 11.1374C88.4803 10.9856 88.5236 10.7144 88.6105 10.3239C88.6973 9.9333 88.9035 9.5374 89.2287 9.13603C89.5541 8.73486 90.0531 8.37686 90.7256 8.06221C91.3982 7.74775 92.3201 7.59033 93.4918 7.59033C94.2945 7.59033 95.0266 7.67725 95.6883 7.85068C96.35 8.02432 96.9193 8.30088 97.3967 8.68057C97.874 9.06025 98.2428 9.54287 98.5031 10.1286C98.7635 10.7146 98.8938 11.4304 98.8938 12.2765H98.8936Z" fill="currentColor"/>
</g>
<defs>
<clipPath id="clip0_44_2196">
<rect width="100" height="29.1016" fill="white" transform="translate(0 0.821777)"/>
</clipPath>
</defs>
</svg>
