<svg width="100" height="101" viewBox="0 0 100 101" fill="none" xmlns="http://www.w3.org/2000/svg">
<path d="M72.8906 37.0913C75.6948 35.0577 77.7833 32.1887 78.857 28.8953C79.9306 25.602 79.9344 22.0533 78.8677 18.7577C77.8009 15.4621 75.7184 12.5887 72.9186 10.5491C70.1187 8.50958 66.7452 7.40856 63.2812 7.40381H36.7187C33.2548 7.40856 29.8812 8.50958 27.0814 10.5491C24.2815 12.5887 22.199 15.4621 21.1323 18.7577C20.0656 22.0533 20.0693 25.602 21.143 28.8953C22.2167 32.1887 24.3052 35.0577 27.1094 37.0913C25.0041 38.6075 23.2894 40.6025 22.1068 42.9117C20.9241 45.2209 20.3074 47.7781 20.3074 50.3726C20.3074 52.967 20.9241 55.5242 22.1068 57.8334C23.2894 60.1426 25.0041 62.1376 27.1094 63.6538C24.8321 65.2994 23.0157 67.5023 21.8341 70.0513C20.6524 72.6003 20.1452 75.41 20.3609 78.2113C20.5767 81.0125 21.5082 83.7115 23.0663 86.0495C24.6243 88.3874 26.7567 90.2861 29.259 91.5636C31.7614 92.8411 34.5499 93.4545 37.3573 93.3452C40.1647 93.2358 42.8971 92.4073 45.2925 90.9391C47.6879 89.4708 49.6661 87.412 51.0375 84.9599C52.409 82.5078 53.1278 79.7446 53.125 76.9351V63.2241C54.8279 64.661 56.8056 65.7359 58.9376 66.3833C61.0696 67.0308 63.3111 67.2372 65.5254 66.99C67.7398 66.7427 69.8806 66.047 71.8172 64.9453C73.7539 63.8436 75.4459 62.3589 76.7899 60.5819C78.134 58.8048 79.102 56.7726 79.635 54.6092C80.1679 52.4458 80.2546 50.1964 79.8897 47.9984C79.5249 45.8004 78.7161 43.6997 77.5128 41.8245C76.3094 39.9493 74.7367 38.3388 72.8906 37.0913ZM73.4375 23.8101C73.4272 26.5005 72.3539 29.0778 70.4514 30.9802C68.549 32.8827 65.9717 33.956 63.2812 33.9663H53.125V13.6538H63.2812C65.9717 13.6641 68.549 14.7374 70.4514 16.6399C72.3539 18.5423 73.4272 21.1196 73.4375 23.8101ZM26.5625 23.8101C26.5728 21.1196 27.6461 18.5423 29.5485 16.6399C31.451 14.7374 34.0283 13.6641 36.7187 13.6538H46.875V33.9663H36.7187C34.0283 33.956 31.451 32.8827 29.5485 30.9802C27.6461 29.0778 26.5728 26.5005 26.5625 23.8101ZM26.5625 50.3726C26.5728 47.6821 27.6461 45.1048 29.5485 43.2024C31.451 41.2999 34.0283 40.2266 36.7187 40.2163H46.875V60.5288H36.7187C34.0283 60.5185 31.451 59.4452 29.5485 57.5427C27.6461 55.6403 26.5728 53.063 26.5625 50.3726ZM36.7187 87.0913C34.0251 87.0913 31.4418 86.0213 29.5372 84.1166C27.6325 82.2119 26.5625 79.6287 26.5625 76.9351C26.5625 74.2415 27.6325 71.6582 29.5372 69.7535C31.4418 67.8488 34.0251 66.7788 36.7187 66.7788H46.875V76.9351C46.8647 79.6255 45.7914 82.2028 43.8889 84.1052C41.9865 86.0077 39.4092 87.081 36.7187 87.0913ZM63.2812 60.5288C60.5876 60.5288 58.0043 59.4588 56.0997 57.5541C54.195 55.6494 53.125 53.0662 53.125 50.3726C53.125 47.679 54.195 45.0957 56.0997 43.191C58.0043 41.2863 60.5876 40.2163 63.2812 40.2163C65.9748 40.2163 68.5581 41.2863 70.4628 43.191C72.3674 45.0957 73.4375 47.679 73.4375 50.3726C73.4375 53.0662 72.3674 55.6494 70.4628 57.5541C68.5581 59.4588 65.9748 60.5288 63.2812 60.5288Z" fill="currentColor"/>
</svg>
