<svg width="18" height="19" viewBox="0 0 18 19" fill="none" xmlns="http://www.w3.org/2000/svg">
<path d="M6.90744 15.0898C3.10277 16.2312 3.10277 13.1874 1.5809 12.807M12.234 17.3726V14.4277C12.2625 14.0649 12.2135 13.7001 12.0902 13.3577C11.9668 13.0153 11.772 12.703 11.5187 12.4417C13.908 12.1754 16.4191 11.2699 16.4191 7.11517C16.4189 6.05277 16.0103 5.03112 15.2777 4.26167C15.6246 3.33219 15.6001 2.30481 15.2092 1.39295C15.2092 1.39295 14.3113 1.12662 12.234 2.51913C10.4899 2.04645 8.65149 2.04645 6.90744 2.51913C4.83009 1.12662 3.93219 1.39295 3.93219 1.39295C3.54135 2.30481 3.51683 3.33219 3.8637 4.26167C3.12569 5.03683 2.71661 6.06772 2.7223 7.138C2.7223 11.2623 5.23338 12.1678 7.62272 12.4645C7.37237 12.7232 7.17929 13.0317 7.05606 13.37C6.93282 13.7082 6.88218 14.0686 6.90744 14.4277V17.3726" stroke="#576CDB" stroke-width="2" stroke-linecap="round" stroke-linejoin="round"/>
</svg>
