<svg width="24" height="25" viewBox="0 0 24 25" fill="none" xmlns="http://www.w3.org/2000/svg">
<g clip-path="url(#clip0_20_1977)">
<path d="M9 19.5C4 21 4 17 2 16.5M16 22.5V18.63C16.0375 18.1532 15.9731 17.6738 15.811 17.2238C15.6489 16.7738 15.3929 16.3634 15.06 16.02C18.2 15.67 21.5 14.48 21.5 9.02C21.4997 7.62383 20.9627 6.2812 20 5.27C20.4559 4.04851 20.4236 2.69835 19.91 1.5C19.91 1.5 18.73 1.15 16 2.98C13.708 2.35882 11.292 2.35882 9 2.98C6.27 1.15 5.09 1.5 5.09 1.5C4.57638 2.69835 4.54414 4.04851 5 5.27C4.03013 6.2887 3.49252 7.64346 3.5 9.05C3.5 14.47 6.8 15.66 9.94 16.05C9.611 16.39 9.35726 16.7954 9.19531 17.2399C9.03335 17.6844 8.96681 18.1581 9 18.63V22.5" stroke="currentColor" stroke-width="2" stroke-linecap="round" stroke-linejoin="round"/>
</g>
<defs>
<clipPath id="clip0_20_1977">
<rect width="24" height="24" fill="white" transform="translate(0 0.5)"/>
</clipPath>
</defs>
</svg>
