<svg width="100" height="101" viewBox="0 0 100 101" fill="none" xmlns="http://www.w3.org/2000/svg">
<g clip-path="url(#clip0_44_2180)">
<path d="M21.1667 0.372559H25.675V4.82673H29.8V0.372559H34.3083V13.8559H29.8V9.34339H25.675V13.8559H21.1708V0.372559H21.1667ZM40.2333 4.84339H36.2667V0.372559H48.7125V4.84339H44.7417V13.8559H40.2333V4.84339ZM50.6875 0.372559H55.3875L58.2792 5.11006L61.1667 0.372559H65.8667V13.8559H61.3792V7.17256L58.2792 11.9684H58.2L55.0958 7.17672V13.8559H50.6875V0.372559ZM68.1083 0.372559H72.6208V9.40172H78.9542V13.8601H68.1083V0.372559Z" fill="currentColor"/>
<path fill-rule="evenodd" clip-rule="evenodd" d="M21.025 92.3391L12.5 20.0266H87.5L78.9708 92.3308L49.9583 100.372L21.025 92.3391ZM38.2625 52.7558L37.4542 43.6724H71.3917L72.1833 34.8058H27.7667L30.1583 61.6266H60.8958L59.8667 73.1266L49.975 75.8016H49.9667L40.0917 73.1349L39.4583 66.0641H30.55L31.7917 79.9891L49.9583 85.0308L68.1542 79.9891L70.3708 55.1391L70.5875 52.7599H38.2625V52.7558Z" fill="currentColor"/>
</g>
<defs>
<clipPath id="clip0_44_2180">
<rect width="100" height="100" fill="white" transform="translate(0 0.372559)"/>
</clipPath>
</defs>
</svg>
