<svg width="100" height="101" viewBox="0 0 100 101" fill="none" xmlns="http://www.w3.org/2000/svg">
<path d="M12.5 12.8726H87.5V87.8726H12.5V12.8726ZM32.2083 75.5392C33.875 79.0809 37.1667 81.9976 42.7917 81.9976C49.0417 81.9976 53.3333 78.6642 53.3333 71.3726V47.2892H46.25V71.2059C46.25 74.7892 44.7917 75.7059 42.5 75.7059C40.0833 75.7059 39.0833 74.0392 37.9583 72.0809L32.2083 75.5392ZM57.125 74.7892C59.2083 78.8726 63.4167 81.9976 70 81.9976C76.6667 81.9976 81.6667 78.5392 81.6667 72.1642C81.6667 66.2892 78.2917 63.6642 72.2917 61.0809L70.5417 60.3309C67.5 59.0392 66.2083 58.1642 66.2083 56.0809C66.2083 54.3726 67.5 53.0392 69.5833 53.0392C71.5833 53.0392 72.9167 53.9142 74.125 56.0809L79.5833 52.4559C77.2917 48.4559 74.0417 46.9142 69.5833 46.9142C63.2917 46.9142 59.25 50.9142 59.25 56.2059C59.25 61.9559 62.625 64.6642 67.7083 66.8309L69.4583 67.5809C72.7083 68.9976 74.625 69.8726 74.625 72.2892C74.625 74.2892 72.75 75.7476 69.8333 75.7476C66.375 75.7476 64.375 73.9559 62.875 71.4559L57.125 74.7892Z" fill="currentColor"/>
</svg>
