<svg width="24" height="25" viewBox="0 0 24 25" fill="none" xmlns="http://www.w3.org/2000/svg">
<path d="M16 8.5C17.5913 8.5 19.1174 9.13214 20.2426 10.2574C21.3679 11.3826 22 12.9087 22 14.5V21.5H18V14.5C18 13.9696 17.7893 13.4609 17.4142 13.0858C17.0391 12.7107 16.5304 12.5 16 12.5C15.4696 12.5 14.9609 12.7107 14.5858 13.0858C14.2107 13.4609 14 13.9696 14 14.5V21.5H10V14.5C10 12.9087 10.6321 11.3826 11.7574 10.2574C12.8826 9.13214 14.4087 8.5 16 8.5V8.5Z" stroke="currentColor" stroke-width="2" stroke-linecap="round" stroke-linejoin="round"/>
<path d="M6 9.5H2V21.5H6V9.5Z" stroke="currentColor" stroke-width="2" stroke-linecap="round" stroke-linejoin="round"/>
<path d="M4 6.5C5.10457 6.5 6 5.60457 6 4.5C6 3.39543 5.10457 2.5 4 2.5C2.89543 2.5 2 3.39543 2 4.5C2 5.60457 2.89543 6.5 4 6.5Z" stroke="currentColor" stroke-width="2" stroke-linecap="round" stroke-linejoin="round"/>
</svg>
