<svg width="100" height="101" viewBox="0 0 100 101" fill="none" xmlns="http://www.w3.org/2000/svg">
<path d="M83.0833 23.6641V76.9975C83.0833 78.8586 82.5417 80.5253 81.4583 81.9975C80.375 83.4419 78.9167 84.4142 77.0833 84.9142L53.2083 91.7892C52.875 91.8725 52.5 91.9558 52.0833 92.0392H51.1667C50.25 92.0392 49.4167 91.9141 48.6667 91.6641C47.9167 91.4141 47.1528 91.0808 46.375 90.6642L30.75 81.8308C30.1667 81.4975 29.7083 81.0669 29.375 80.5391C29.0417 80.0114 28.875 79.4141 28.875 78.7475C28.875 77.7475 29.2361 76.9003 29.9583 76.2058C30.6528 75.5114 31.5 75.1642 32.5 75.1642H52.75V25.9558L37.5 31.3725C36.3055 31.8169 35.3333 32.5947 34.5833 33.7058C33.8333 34.7614 33.4583 35.9419 33.4583 37.2475V65.2891C33.4583 66.4558 33.1667 67.5114 32.5833 68.4558C32.0278 69.4003 31.2361 70.1503 30.2083 70.7058L23.0417 74.6225C22.375 74.9836 21.7083 75.1642 21.0417 75.1642C19.9028 75.1642 18.9305 74.7614 18.125 73.9558C17.3194 73.1503 16.9167 72.1642 16.9167 70.9975V31.4975C16.9167 30.053 17.2917 28.7058 18.0417 27.4558C18.8194 26.0669 19.8333 25.0114 21.0833 24.2891L46.75 9.70581C47.3333 9.37248 47.9583 9.12248 48.625 8.95581C49.2917 8.78914 49.9583 8.70581 50.625 8.70581C51.0972 8.70581 51.5278 8.74748 51.9167 8.83081C52.3055 8.88637 52.7361 8.98359 53.2083 9.12248L77.0833 15.7475C78 15.9975 78.8194 16.3725 79.5417 16.8725C80.2639 17.3725 80.8889 17.9697 81.4167 18.6641C81.9722 19.3864 82.3889 20.1641 82.6667 20.9975C82.9444 21.8586 83.0833 22.7475 83.0833 23.6641ZM77.5833 76.9975V23.6641C77.5833 23.0253 77.4167 22.4697 77.0833 21.9975C76.6667 21.4697 76.1528 21.1503 75.5417 21.0391L63.7917 17.7891C62.9305 17.5391 62.0139 17.2891 61.0417 17.0391C60.125 16.7336 59.2222 16.4697 58.3333 16.2475V84.5808L75.5417 79.5391C76.1528 79.428 76.6667 79.1364 77.0833 78.6642C77.4167 78.1919 77.5833 77.6364 77.5833 76.9975Z" fill="currentColor"/>
</svg>
