<svg width="101" height="101" viewBox="0 0 101 101" fill="none" xmlns="http://www.w3.org/2000/svg">
<path d="M50.3333 42.4975C54.625 42.4975 58.125 45.9975 58.125 50.3725C58.125 54.5392 54.625 58.0808 50.3333 58.0808C46.0417 58.0808 42.5417 54.5392 42.5417 50.3725C42.5417 45.9975 46.0417 42.4975 50.3333 42.4975ZM31.0417 83.7058C33.6667 85.2892 39.4167 82.8725 46.0417 76.6225C43.875 74.1642 41.75 71.4975 39.75 68.7058C36.3923 68.3845 33.0542 67.8838 29.75 67.2058C27.625 76.1225 28.4167 82.2475 31.0417 83.7058ZM34 59.7892L32.7917 57.6642C32.3333 58.8725 31.875 60.0808 31.5833 61.2475C32.7083 61.4975 33.9583 61.7058 35.25 61.9142L34 59.7892ZM61.25 56.6225L64.625 50.3725L61.25 44.1225C60 41.9142 58.6667 39.9558 57.4583 37.9975C55.2083 37.8725 52.8333 37.8725 50.3333 37.8725C47.8333 37.8725 45.4583 37.8725 43.2083 37.9975C42 39.9558 40.6667 41.9142 39.4167 44.1225L36.0417 50.3725L39.4167 56.6225C40.6667 58.8308 42 60.7892 43.2083 62.7475C45.4583 62.8725 47.8333 62.8725 50.3333 62.8725C52.8333 62.8725 55.2083 62.8725 57.4583 62.7475C58.6667 60.7892 60 58.8308 61.25 56.6225ZM50.3333 28.6225C49.5417 29.5392 48.7083 30.4975 47.875 31.6225H52.7917C51.9583 30.4975 51.125 29.5392 50.3333 28.6225ZM50.3333 72.1225C51.125 71.2058 51.9583 70.2475 52.7917 69.1225H47.875C48.7083 70.2475 49.5417 71.2058 50.3333 72.1225ZM69.5833 17.0392C67 15.4558 61.25 17.8725 54.625 24.1225C56.7917 26.5808 58.9167 29.2475 60.9167 32.0392C64.3333 32.3725 67.7083 32.8725 70.9167 33.5392C73.0417 24.6225 72.25 18.4975 69.5833 17.0392ZM66.6667 40.9558L67.875 43.0808C68.3333 41.8725 68.7917 40.6642 69.0833 39.4975C67.9583 39.2475 66.7083 39.0392 65.4167 38.8308L66.6667 40.9558ZM72.7083 11.5808C78.8333 15.0808 79.5 24.2892 76.9167 35.0392C87.5 38.1642 95.125 43.3308 95.125 50.3725C95.125 57.4142 87.5 62.5808 76.9167 65.7058C79.5 76.4558 78.8333 85.6642 72.7083 89.1642C66.625 92.6642 58.3333 88.6642 50.3333 81.0392C42.3333 88.6642 34.0417 92.6642 27.9167 89.1642C21.8333 85.6642 21.1667 76.4558 23.75 65.7058C13.1667 62.5808 5.54166 57.4142 5.54166 50.3725C5.54166 43.3308 13.1667 38.1642 23.75 35.0392C21.1667 24.2892 21.8333 15.0808 27.9167 11.5808C34.0417 8.08082 42.3333 12.0808 50.3333 19.7058C58.3333 12.0808 66.625 8.08082 72.7083 11.5808ZM71.5 50.3725C72.9167 53.4975 74.1667 56.6225 75.2083 59.7892C83.9583 57.1642 88.875 53.4142 88.875 50.3725C88.875 47.3308 83.9583 43.5808 75.2083 40.9558C74.1667 44.1225 72.9167 47.2475 71.5 50.3725ZM29.1667 50.3725C27.75 47.2475 26.5 44.1225 25.4583 40.9558C16.7083 43.5808 11.7917 47.3308 11.7917 50.3725C11.7917 53.4142 16.7083 57.1642 25.4583 59.7892C26.5 56.6225 27.75 53.4975 29.1667 50.3725ZM66.6667 59.7892L65.4167 61.9142C66.7083 61.7058 67.9583 61.4975 69.0833 61.2475C68.7917 60.0808 68.3333 58.8725 67.875 57.6642L66.6667 59.7892ZM54.625 76.6225C61.25 82.8725 67 85.2892 69.5833 83.7058C72.25 82.2475 73.0417 76.1225 70.9167 67.2058C67.7083 67.8725 64.3333 68.3725 60.9167 68.7058C58.9167 71.4975 56.7917 74.1642 54.625 76.6225ZM34 40.9558L35.25 38.8308C33.9583 39.0392 32.7083 39.2475 31.5833 39.4975C31.875 40.6642 32.3333 41.8725 32.7917 43.0808L34 40.9558ZM46.0417 24.1225C39.4167 17.8725 33.6667 15.4558 31.0417 17.0392C28.4167 18.4975 27.625 24.6225 29.75 33.5392C33.0542 32.8612 36.3923 32.3605 39.75 32.0392C41.75 29.2475 43.875 26.5808 46.0417 24.1225Z" fill="currentColor"/>
</svg>
