<svg width="101" height="101" viewBox="0 0 101 101" fill="none" xmlns="http://www.w3.org/2000/svg">
<g clip-path="url(#clip0_44_2202)">
<path d="M100.29 64.4488C100.003 62.1207 98.8235 60.1012 96.7747 58.4391C96.7492 58.4081 96.7211 58.3793 96.6907 58.3531L96.5872 58.2789L96.554 58.2555L95.4661 57.4742L95.429 57.4469L95.2903 57.3492C95.2395 57.3196 95.185 57.2966 95.1282 57.2809C91.6868 55.2321 85.9896 53.7965 77.2728 56.8727C75.1927 53.3727 74.9564 50.568 76.3489 46.2711C76.597 45.5231 76.3665 45.0289 75.6243 44.7086C74.1321 44.0738 72.0892 44.3981 70.6399 44.7809C69.9642 44.9567 69.5579 45.3395 69.429 45.9196C68.511 50.2164 65.8431 54.1422 63.263 57.9313L63.1107 58.1539C61.5208 54.7828 61.8509 52.1715 62.9583 48.9C63.179 48.2477 63.0052 47.8141 62.3939 47.4899C60.6868 46.609 58.1263 47.2145 57.1067 47.5153C55.8138 47.8922 54.4271 51.3863 52.8782 55.5699C52.4876 56.6227 52.1517 57.5231 51.9505 57.943C51.472 58.9196 51.0149 60.0328 50.5306 61.2145C49.4368 63.8883 48.2044 66.8981 46.4427 68.7887C45.8021 67.3727 46.8099 65.1403 47.7884 62.9742C48.9466 60.4137 50.0403 57.9938 48.7806 56.4488C48.5813 56.2046 48.3342 56.0037 48.0544 55.8586C47.7746 55.7135 47.468 55.6272 47.1536 55.6051C46.7434 55.5739 46.3316 55.6408 45.9524 55.8004C46.0833 54.6969 46.0892 53.8258 45.7669 52.7731C45.306 51.2711 44.1087 50.4293 42.4603 50.4742C38.7064 50.5836 35.5306 53.3805 33.5247 55.7086C32.1888 57.2711 29.2278 58.4625 26.6282 59.5074C25.6009 59.943 24.6243 60.3336 23.8099 60.7242C22.511 59.6266 20.8606 58.5192 19.1224 57.3492C14.2396 54.0719 8.70635 50.3551 8.51495 45.316C8.24151 37.8727 16.7181 32.5934 24.1165 28.8258C29.7239 25.9742 34.5989 24.0836 39.0208 23.0504C45.2317 21.5992 50.4778 21.8922 54.6106 23.9176C56.8724 25.025 57.931 27.4332 57.2591 29.9098C55.5013 36.3453 48.2181 40.7555 41.9896 42.7399C38.2376 43.9352 35.0442 44.4352 32.2239 44.2711C28.6888 44.066 25.8021 42.2926 24.5677 41.5367C24.3699 41.4017 24.1608 41.2841 23.9427 41.1852L23.886 41.1715C23.7743 41.1437 23.657 41.1472 23.5471 41.1817C23.4372 41.2161 23.3389 41.2802 23.263 41.3668C23.0091 41.6696 23.0989 42.1481 23.1907 42.3903C24.3919 45.5289 26.8724 47.5113 30.5618 48.2828C31.7693 48.5246 32.9984 48.6418 34.2298 48.6324C42.8646 48.6324 53.8821 43.6539 57.929 39.5543C60.6888 36.7613 62.6985 33.8903 63.5306 28.9391C64.3997 23.7535 60.8841 20.15 57.3021 18.4899C48.597 14.4723 38.7103 16.0602 31.9485 18.0992C24.0384 20.484 15.8548 24.8199 9.49932 29.9996C1.66338 36.3805 -1.16865 42.3043 1.07745 47.6266C3.38409 53.0817 9.00909 56.4938 14.4485 59.7945C16.2064 60.859 17.8782 61.8727 19.3841 62.9195C18.931 63.1403 18.4681 63.3649 17.9974 63.5895C13.431 65.8024 8.25127 68.2926 5.37823 72.4078C3.29229 75.4059 2.90166 78.3903 4.21807 81.2789C4.9212 82.816 6.1712 83.859 7.90752 84.3785C8.81075 84.6344 9.74616 84.7588 10.6849 84.7477C14.0657 84.7477 17.7864 83.3805 19.8118 82.1168C23.3899 79.8707 25.7083 76.8551 26.7044 73.1539C27.5911 69.861 27.3782 66.5895 26.0892 63.6695L30.4739 61.4586C28.3587 68.4899 29.9798 72.6891 31.761 75.0055C32.4173 75.859 33.6009 76.3727 34.9231 76.3961C36.2454 76.4195 37.4622 75.9215 38.1497 75.0738C39.4505 73.4625 40.4114 71.5778 41.2962 69.693C41.2493 70.9235 41.3079 72.1696 41.7278 73.2262C42.1048 74.1774 42.7259 74.8082 43.5267 75.0504C44.3782 75.3102 45.3763 75.0914 46.3372 74.4352C50.6673 71.4723 53.6282 64.361 56.0071 58.6442C56.345 57.8317 56.6692 57.0504 56.9837 56.3199C57.5722 58.4262 58.391 60.4613 59.4251 62.3883C59.6556 62.8063 59.636 62.9899 59.3235 63.3336C58.8528 63.8492 58.1966 64.4723 57.5013 65.1324C55.3958 67.1305 52.7747 69.6246 52.4232 71.818C52.2864 72.6969 52.8919 73.4977 53.8314 73.6793C56.6575 74.2418 60.0618 73.4195 62.9407 71.482C65.5579 69.7242 66.5423 67.2731 65.8704 64.2184C65.22 61.277 66.7044 57.6246 70.2825 53.3551C70.8685 55.8024 71.6497 57.7809 72.7278 59.5133L72.6985 59.5367C70.0931 61.8121 66.5228 64.9274 67.0775 68.7067C67.124 69.0661 67.2449 69.4118 67.4326 69.7219C67.6202 70.032 67.8705 70.2995 68.1673 70.5074C68.4845 70.7216 68.8426 70.8679 69.219 70.9372C69.5954 71.0064 69.9821 70.9971 70.3548 70.9098C73.7669 70.193 76.3353 68.7496 78.2024 66.5016C80.0696 64.2535 79.388 61.7613 78.7591 59.8278C83.6419 58.5035 87.9896 58.5367 92.0599 59.9254C94.345 60.7067 95.9837 61.9899 96.929 63.7613C98.1185 65.9899 97.4759 68.0465 95.1146 69.5524C94.3899 70.0153 94.0403 70.2985 94.0189 70.6559C94.0141 70.7388 94.0293 70.8217 94.0633 70.8975C94.0973 70.9733 94.149 71.0398 94.2142 71.0914C94.4876 71.316 95.3314 71.7067 97.2396 70.5055C98.9974 69.402 100.029 67.9 100.292 66.0133C100.345 65.4931 100.345 64.9689 100.29 64.4488ZM22.2181 69.3434L22.1985 69.5934C21.8939 72.4528 20.4407 74.9449 17.8724 77.0153C16.2591 78.316 14.5071 79.1149 12.9407 79.2672C11.847 79.3727 11.0521 79.2242 10.5794 78.8238C10.2259 78.525 10.0364 78.0778 9.99346 77.4567C9.67315 72.4801 17.4778 67.5348 21.8704 65.9078C22.1839 67.0243 22.3015 68.1867 22.2181 69.3434ZM42.2083 55.3082C41.4856 59.4274 39.3782 67.2028 36.0657 70.2203C35.9075 70.3649 35.7747 70.4156 35.7142 70.402C35.6536 70.3883 35.6067 70.316 35.5579 70.2067C34.4524 67.6442 34.8606 63.316 36.5345 59.9156C37.8216 57.2945 39.6595 55.5582 41.7142 55.0328C41.7995 55.0093 41.8874 54.9968 41.9759 54.9957C42.0451 54.9909 42.1139 55.0094 42.1712 55.0485C42.1954 55.0867 42.2112 55.1296 42.2176 55.1744C42.224 55.2191 42.2208 55.2648 42.2083 55.3082ZM58.5149 70.3238C57.8919 70.9742 57.0384 70.8863 57.2396 70.6481L60.4114 67.2809C60.1556 68.4391 59.3997 69.3981 58.5149 70.3238ZM71.6732 67.4117C71.3715 67.5604 71.0451 67.6524 70.7103 67.6832C70.6204 65.9117 72.3372 63.9176 74.0306 62.5875C74.4856 64.4352 73.554 66.3883 71.6732 67.4117Z" fill="currentColor"/>
</g>
<defs>
<clipPath id="clip0_44_2202">
<rect width="100" height="100" fill="white" transform="translate(0.333313 0.372559)"/>
</clipPath>
</defs>
</svg>
