<svg width="101" height="101" viewBox="0 0 101 101" fill="none" xmlns="http://www.w3.org/2000/svg">
<g clip-path="url(#clip0_44_2200)">
<path fill-rule="evenodd" clip-rule="evenodd" d="M21.1041 8.70581C15.3958 8.70581 11.175 13.7016 11.3666 19.1141C11.5458 24.3225 11.3125 31.06 9.61665 36.5558C7.90831 42.0641 5.03331 45.5558 0.333313 46.0058V51.0683C5.03331 51.5141 7.91248 55.0058 9.61248 60.5183C11.3125 66.0141 11.5458 72.7516 11.3625 77.9558C11.175 83.3725 15.3958 88.3683 21.1041 88.3683H79.5708C85.2791 88.3683 89.5 83.3725 89.3083 77.9558C89.1291 72.7516 89.3625 66.0141 91.0583 60.5183C92.7625 55.0058 95.6333 51.5183 100.333 51.0683V46.0058C95.6333 45.5558 92.7625 42.0641 91.0583 36.5558C89.3625 31.0558 89.1291 24.3183 89.3083 19.1141C89.5 13.6975 85.275 8.70581 79.5708 8.70581H21.1041ZM68.125 57.7433C68.125 65.2016 62.5625 69.7225 53.3333 69.7225H37.6208C37.1711 69.7225 36.7397 69.5438 36.4217 69.2258C36.1036 68.9077 35.925 68.4764 35.925 68.0266V29.0433C35.9261 28.5943 36.1052 28.164 36.4231 27.8469C36.7411 27.5297 37.1718 27.3516 37.6208 27.3516H53.2458C60.9416 27.3516 65.9958 31.5183 65.9958 37.9225C65.9958 42.4141 62.5958 46.435 58.2666 47.1433V47.3766C64.1625 48.0225 68.1291 52.1058 68.1291 57.7433H68.125ZM51.625 32.7225H42.6666V45.3808H50.2125C56.0458 45.3808 59.2625 43.0308 59.2625 38.8308C59.2625 34.8975 56.4958 32.7225 51.625 32.7225ZM42.6666 50.4016V64.3475H51.9583C58.0291 64.3475 61.25 61.91 61.25 57.3308C61.25 52.7475 57.9416 50.4016 51.5666 50.4016H42.6666Z" fill="currentColor"/>
</g>
<defs>
<clipPath id="clip0_44_2200">
<rect width="100" height="100" fill="white" transform="translate(0.333313 0.372559)"/>
</clipPath>
</defs>
</svg>
