<svg width="100" height="101" viewBox="0 0 100 101" fill="none" xmlns="http://www.w3.org/2000/svg">
<g clip-path="url(#clip0_44_2185)">
<path d="M31.2583 0.372559H42V4.86422H35.75V9.35589H42V13.8476H31.2583V0.372559ZM44.1458 0.372559H54.8917V4.28089H48.6417V5.06006H54.8917V14.0434H44.1458V9.94339H50.3958V9.16006H44.1458V0.372559ZM57.0417 0.372559H67.7792V4.28089H61.5292V5.06006H67.7792V14.0434H57.0417V9.94339H63.2917V9.16006H57.0417V0.372559Z" fill="currentColor"/>
<path fill-rule="evenodd" clip-rule="evenodd" d="M49.9625 100.372L21.0292 92.3391L12.5 20.0266H87.5L78.975 92.3308L49.9625 100.372ZM29.3625 52.7599L30.1583 61.6266H60.8958L59.8667 73.1266L49.975 75.8016H49.9667L40.0917 73.1349L39.4583 66.0641H30.5542L31.7958 79.9891L49.9625 85.0308L68.1583 79.9891L70.375 55.1391L70.5917 52.7599L72.1917 34.8058H27.7667L28.575 43.6766H62.475L61.6667 52.7599H29.3625Z" fill="currentColor"/>
</g>
<defs>
<clipPath id="clip0_44_2185">
<rect width="100" height="100" fill="white" transform="translate(0 0.372559)"/>
</clipPath>
</defs>
</svg>
