<svg width="100" height="101" viewBox="0 0 100 101" fill="none" xmlns="http://www.w3.org/2000/svg">
<path d="M10.8334 44.4975L34.9167 20.3725L41.9584 27.4558C40.9584 30.9975 42.5834 34.8725 45.8334 36.7475V59.8308C43.3334 61.2475 41.6667 63.9558 41.6667 67.0391C41.6667 69.2493 42.5447 71.3689 44.1075 72.9317C45.6703 74.4945 47.7899 75.3725 50 75.3725C52.2102 75.3725 54.3298 74.4945 55.8926 72.9317C57.4554 71.3689 58.3334 69.2493 58.3334 67.0391C58.3334 63.9558 56.6667 61.2475 54.1667 59.8308V39.5808L62.7917 48.2891C62.5 48.9141 62.5 49.6225 62.5 50.3725C62.5 52.5826 63.378 54.7022 64.9408 56.265C66.5036 57.8278 68.6232 58.7058 70.8334 58.7058C73.0435 58.7058 75.1631 57.8278 76.7259 56.265C78.2887 54.7022 79.1667 52.5826 79.1667 50.3725C79.1667 48.1623 78.2887 46.0427 76.7259 44.4799C75.1631 42.9171 73.0435 42.0391 70.8334 42.0391C70.0834 42.0391 69.375 42.0391 68.75 42.3308L58.0417 31.6225C58.5591 29.6926 58.3585 27.6406 57.4772 25.8474C56.596 24.0543 55.094 22.6419 53.25 21.8725C51.4584 21.2058 49.5834 21.0391 47.9167 21.4975L40.8334 14.4558L44.125 11.2058C47.375 7.91414 52.625 7.91414 55.875 11.2058L89.1667 44.4975C92.4584 47.7475 92.4584 52.9975 89.1667 56.2475L55.875 89.5391C52.625 92.8308 47.375 92.8308 44.125 89.5391L10.8334 56.2475C7.54171 52.9975 7.54171 47.7475 10.8334 44.4975Z" fill="currentColor"/>
</svg>
