<svg width="12" height="12" viewBox="0 0 12 12" fill="none" xmlns="http://www.w3.org/2000/svg">
<path d="M4.36364 0.780273H2.18182V1.87118H1.09091V2.96209H0V6.23482H1.09091V7.32573H2.18182V8.41664H3.27273V9.50755H4.36364V10.5985H5.45455V11.6894H6.54545V10.5985H7.63636V9.50755H8.72727V8.41664H9.81818V7.32573H10.9091V6.23482H12V2.96209H10.9091V1.87118H9.81818V0.780273H7.63636V1.87118H6.54545V2.96209H5.45455V1.87118H4.36364V0.780273ZM4.36364 1.87118V2.96209H5.45455V4.053H6.54545V2.96209H7.63636V1.87118H9.81818V2.96209H10.9091V6.23482H9.81818V7.32573H8.72727V8.41664H7.63636V9.50755H6.54545V10.5985H5.45455V9.50755H4.36364V8.41664H3.27273V7.32573H2.18182V6.23482H1.09091V2.96209H2.18182V1.87118H4.36364Z" fill="#FF0000"/>
</svg>
