<svg width="100" height="101" viewBox="0 0 100 101" fill="none" xmlns="http://www.w3.org/2000/svg">
<path d="M43.875 45.0809C43.4583 43.7892 43.0833 42.5392 42.6667 41.2476C42.25 39.9559 41.875 38.7476 41.5417 37.5392C41.2083 36.3726 40.9167 35.2892 40.625 34.2892H40.5417C40.1667 36.0809 39.7083 37.8726 39.125 39.6642C38.5 41.6642 37.875 43.7476 37.2083 45.8309C36.625 47.9559 36 49.9142 35.375 51.6642H45.9583C45.7083 50.7851 45.375 49.7476 45 48.6601C44.625 47.5392 44.25 46.3309 43.875 45.0809ZM82.2917 1.62256H17.7083C7.91667 1.62256 0 9.53923 0 19.3309V81.4142C0 91.2059 7.91667 99.1226 17.7083 99.1226H82.2917C92.0833 99.1226 100 91.2059 100 81.4142V19.3309C100 9.53923 92.0833 1.62256 82.2917 1.62256ZM61.25 70.4976H52.5375C52.25 70.5392 51.9583 70.3309 51.875 70.0392L48.4583 60.1226H32.9583L29.7917 69.9142C29.7083 70.2892 29.375 70.5392 29 70.5017H21.1667C20.7083 70.5017 20.5833 70.2476 20.7083 69.7517L34.125 31.1226C34.25 30.7059 34.375 30.2476 34.5417 29.7476C34.7083 28.8726 34.7917 27.9559 34.7917 27.0392C34.75 26.8309 34.9167 26.6226 35.125 26.5809H45.9167C46.25 26.5809 46.4167 26.7059 46.4583 26.9142L61.6667 69.8309C61.7917 70.2851 61.6667 70.4976 61.25 70.4976ZM75.4167 69.8726C75.4167 70.3309 75.2542 70.5392 74.8792 70.5392H66.7083C66.2917 70.5392 66.0833 70.2851 66.0833 69.8726V37.7892C66.0833 37.3726 66.2542 37.2059 66.6292 37.2059H74.8792C75.2542 37.2059 75.4167 37.4142 75.4167 37.7892V69.8726ZM74.5458 32.2476C74.0537 32.7473 73.4604 33.136 72.8057 33.3875C72.151 33.6391 71.4501 33.7476 70.75 33.7059C69.375 33.7476 68.0417 33.2059 67.0375 32.2476C66.0829 31.2038 65.5744 29.828 65.6208 28.4142C65.5792 26.9976 66.1208 25.6642 67.1167 24.7059C68.125 23.7476 69.4583 23.2476 70.8333 23.2476C72.4625 23.2476 73.7042 23.7476 74.625 24.7059C75.5417 25.7059 76.0417 27.0392 76 28.4142C76.0417 29.8309 75.5417 31.2059 74.5458 32.2476Z" fill="currentColor"/>
</svg>
