<svg width="101" height="101" viewBox="0 0 101 101" fill="none" xmlns="http://www.w3.org/2000/svg">
<g clip-path="url(#clip0_45_2247)">
<path d="M68.6875 23.2934C68.2083 23.2934 67.8833 23.3517 67.5458 23.4309V23.4851H67.6041C67.8291 23.9184 68.2125 24.2351 68.4958 24.6226C68.7208 25.0684 68.9125 25.5142 69.1375 25.9559L69.1958 25.8934C69.5875 25.6184 69.7791 25.1767 69.7791 24.5059C69.6125 24.3101 69.5875 24.1143 69.4458 23.9226C69.2791 23.6434 68.9208 23.5059 68.6958 23.2851L68.6875 23.2934ZM24.375 78.2684H20.5125C20.4039 72.13 20.0285 65.9992 19.3875 59.8934H19.3541L13.4791 78.2684H10.5416L4.70831 59.8934H4.66665C4.21037 66.0088 3.93941 72.1366 3.85415 78.2684H0.333313C0.56248 70.0767 1.13331 62.3934 2.04165 55.2267H6.83331L12.3958 72.1601H12.4291L18.0416 55.2267H22.6041C23.6125 63.6226 24.2041 71.3101 24.3875 78.2684H24.375ZM41.1125 61.2684C39.5375 69.7892 37.4625 75.9893 34.8958 79.8517C32.8875 82.8351 30.6875 84.3226 28.3 84.3226C27.6625 84.3226 26.8833 84.1309 25.9416 83.7476V81.6892C26.4 81.7601 26.9416 81.7976 27.55 81.7976C28.6666 81.7976 29.5625 81.4851 30.2458 80.8726C31.0666 80.1226 31.475 79.2809 31.475 78.3517C31.475 77.7059 31.1541 76.3934 30.5166 74.4184L26.2916 61.2684H30.0833L33.1125 71.1017C33.7958 73.3351 34.0833 74.8934 33.9666 75.7809C35.6333 71.3476 36.7916 66.5017 37.4458 61.2684H41.1125ZM92.4666 78.2684H81.5083V55.2267H85.1958V75.4351H92.4666V78.2684ZM78.6333 78.8309L74.4 76.7476C74.775 76.4309 75.1375 76.0892 75.4625 75.7059C77.2666 73.5976 78.1625 70.4642 78.1625 66.3184C78.1625 58.6934 75.1708 54.8767 69.1833 54.8767C66.25 54.8767 63.9583 55.8434 62.3083 57.7809C60.5166 59.8976 59.6166 63.0143 59.6166 67.1351C59.6166 71.1851 60.4083 74.1601 62.0083 76.0517C63.4666 77.7601 65.6625 78.6142 68.6041 78.6142C69.7041 78.6142 70.7125 78.4767 71.625 78.2059L77.1458 81.4226L78.6458 78.8309H78.6333ZM64.9166 73.6559C63.9791 72.1559 63.5125 69.7392 63.5125 66.4226C63.5125 60.6184 65.2791 57.7142 68.8041 57.7142C70.65 57.7142 72.0125 58.4101 72.875 59.7976C73.8083 61.3059 74.275 63.6976 74.275 66.9767C74.275 72.8267 72.5083 75.7601 68.9833 75.7601C67.1291 75.7601 65.775 75.0642 64.9083 73.6768L64.9166 73.6559ZM58.0083 71.8851C58.0083 73.8434 57.2916 75.4517 55.8583 76.7017C54.425 77.9517 52.5125 78.5767 50.0916 78.5767C47.8291 78.5767 45.6583 77.8601 43.5375 76.4309L44.525 74.4476C46.35 75.3642 47.9958 75.8143 49.4833 75.8143C50.8666 75.8143 51.9541 75.5101 52.7458 74.8976C53.1415 74.5993 53.461 74.2116 53.6782 73.7663C53.8955 73.3209 54.0043 72.8305 53.9958 72.3351C53.9958 70.9601 53.0375 69.7934 51.2958 68.8143C49.6791 67.9268 46.45 66.0767 46.45 66.0767C44.6916 64.7976 43.8166 63.4267 43.8166 61.1726C43.8166 59.2976 44.4708 57.7976 45.775 56.6517C47.0875 55.4934 48.775 54.9226 50.8583 54.9226C52.9916 54.9226 54.9416 55.4892 56.6916 56.6309L55.8041 58.6142C54.4058 58 52.898 57.674 51.3708 57.6559C50.1916 57.6559 49.2791 57.9393 48.6458 58.5142C48.3244 58.7805 48.0653 59.114 47.8868 59.4912C47.7082 59.8684 47.6146 60.2802 47.6125 60.6976C47.6125 62.0642 48.5875 63.2392 50.3875 64.2392C52.025 65.1351 55.3333 67.0309 55.3333 67.0309C57.1375 68.3017 58.0333 69.6559 58.0333 71.8976L58.0083 71.8851ZM97.1 47.5017C94.8708 47.4434 93.1416 47.6684 91.6958 48.2851C91.2791 48.4517 90.6125 48.4518 90.5541 48.9809C90.7833 49.2018 90.8166 49.5642 91.0125 49.8726C91.3458 50.4309 91.9208 51.1767 92.4541 51.5684C93.0375 52.0267 93.6208 52.4684 94.2333 52.8601C95.3166 53.5267 96.5458 53.9226 97.6083 54.5934C98.2125 54.9851 98.8291 55.4809 99.4416 55.8976C99.7458 56.1059 99.9416 56.4809 100.333 56.6142V56.5309C100.142 56.2809 100.083 55.9184 99.8958 55.6392C99.6166 55.3601 99.3375 55.1101 99.0625 54.8351C98.2444 53.757 97.2681 52.8088 96.1666 52.0226C95.275 51.4142 93.325 50.5642 92.9583 49.5434L92.9041 49.4851C93.5125 49.4309 94.2375 49.2101 94.8208 49.0434C95.7666 48.7934 96.6333 48.8476 97.6125 48.6017C98.0541 48.4893 98.5 48.3517 98.9458 48.2101V47.9601C98.4458 47.4601 98.0708 46.7809 97.5541 46.3143C96.112 45.0537 94.5741 43.9072 92.9541 42.8851C92.0791 42.3267 90.9708 41.9684 90.05 41.4934C89.7166 41.3268 89.1583 41.2434 88.9666 40.9642C88.4666 40.3559 88.175 39.5476 87.8208 38.8226C87.0026 37.2354 86.2424 35.6191 85.5416 33.9767C85.0416 32.8851 84.7375 31.7976 84.125 30.7976C81.25 26.0601 78.1375 23.1893 73.35 20.3809C72.3208 19.7976 71.0875 19.5476 69.7833 19.2392C69.0875 19.2059 68.3916 19.1559 67.7 19.1268C67.2416 18.9309 66.8 18.4017 66.4083 18.1476C64.825 17.1476 60.725 14.9809 59.5583 17.8476C58.8083 19.6559 60.6708 21.4393 61.3166 22.3559C61.7958 22.9934 62.4 23.7226 62.7333 24.4392C62.9291 24.9226 62.9833 25.4184 63.1791 25.9226C63.6208 27.1476 64.0416 28.5142 64.625 29.6601C64.9291 30.2434 65.2625 30.8559 65.6541 31.3809C65.8791 31.6851 66.2625 31.8268 66.35 32.3268C65.9583 32.8934 65.9333 33.7184 65.7083 34.4101C64.7083 37.5642 65.1 41.4642 66.5166 43.7851C66.9625 44.4767 68.025 46.0101 69.4458 45.4226C70.6958 44.9226 70.4208 43.3393 70.7791 41.9434C70.8625 41.6101 70.8083 41.3892 70.9791 41.1642V41.2268C71.3708 42.0101 71.7625 42.7559 72.1208 43.5392C72.9791 44.9059 74.4791 46.3226 75.7333 47.2684C76.4 47.7684 76.9291 48.6351 77.7625 48.9434V48.8601H77.7C77.5208 48.6184 77.2833 48.5017 77.0583 48.3059C76.53 47.7887 76.0424 47.2315 75.6 46.6392C74.426 45.0352 73.385 43.3378 72.4875 41.5642C72.0291 40.6892 71.6458 39.7476 71.2791 38.8851C71.1125 38.5518 71.1125 38.0518 70.8333 37.8851C70.4166 38.4934 69.8041 39.0226 69.5 39.7726C68.9708 40.9726 68.9166 42.4476 68.7166 43.9809C68.6041 44.0101 68.6583 43.9809 68.6041 44.0392C67.7125 43.8226 67.4083 42.8976 67.075 42.1226C66.2416 40.1434 66.1041 36.9642 66.825 34.6851C67.0208 34.1017 67.8541 32.2601 67.5208 31.7018C67.3458 31.1726 66.7958 30.8684 66.4916 30.4393C66.1004 29.8807 65.7654 29.2847 65.4916 28.6601C64.825 27.1018 64.4916 25.3767 63.7666 23.8184C63.4333 23.0976 62.85 22.3434 62.375 21.6809C61.8458 20.9309 61.2625 20.4017 60.8416 19.5142C60.7041 19.2101 60.5083 18.7059 60.7291 18.3726C60.7875 18.1476 60.9041 18.0601 61.1208 17.9976C61.4875 17.6976 62.5166 18.0892 62.8791 18.2559C63.9083 18.6726 64.775 19.0643 65.6375 19.6476C66.0291 19.9226 66.45 20.4518 66.95 20.5893H67.5333C68.425 20.7851 69.4291 20.6476 70.2625 20.8934C71.7416 21.3684 73.075 22.0601 74.2708 22.8101C77.9555 25.1639 80.9526 28.4499 82.9583 32.3351C83.2916 32.9768 83.4375 33.5643 83.7416 34.2309C84.325 35.6059 85.0458 36.9934 85.6375 38.3226C86.2208 39.6351 86.7833 40.9726 87.6208 42.0601C88.0375 42.6434 89.7125 42.9476 90.4625 43.2518C91.0166 43.5018 91.8791 43.7309 92.3791 44.0351C93.3375 44.6184 94.2708 45.2851 95.1708 45.9267C95.6291 46.2434 97.0166 46.9392 97.1 47.5017Z" fill="currentColor"/>
</g>
<defs>
<clipPath id="clip0_45_2247">
<rect width="100" height="100" fill="white" transform="translate(0.333313 0.372559)"/>
</clipPath>
</defs>
</svg>
