<svg width="100" height="101" viewBox="0 0 100 101" fill="none" xmlns="http://www.w3.org/2000/svg">
<g clip-path="url(#clip0_384_395)">
<path d="M46.725 0.398079C46.5083 0.418913 45.825 0.489746 45.2083 0.535579C31.0083 1.81891 17.7083 9.48141 9.275 21.2606C4.61792 27.7261 1.5905 35.2203 0.45 43.1064C0.05 45.8564 0 46.6647 0 50.3897C0 54.1147 0.05 54.9272 0.45 57.6731C3.16667 76.4522 16.5333 92.2272 34.6542 98.0731C37.9 99.1189 41.3208 99.8314 45.2083 100.265C46.725 100.431 53.275 100.431 54.7917 100.265C61.5042 99.5189 67.1958 97.8564 72.8042 94.9939C73.6667 94.5564 73.8333 94.4356 73.7167 94.3397C70.9733 90.7219 68.258 87.0829 65.5708 83.4231L57.575 72.6189L47.5583 57.7897C44.2255 52.8298 40.8615 47.8908 37.4667 42.9731C37.4292 42.9606 37.3917 49.5481 37.3708 57.5981C37.3417 71.6814 37.3292 72.2481 37.1542 72.5814C36.9835 72.9704 36.6789 73.2853 36.2958 73.4689C35.9833 73.6272 35.7125 73.6564 34.2333 73.6564H32.5417L32.0917 73.3731C31.8132 73.1973 31.5872 72.9497 31.4375 72.6564L31.2292 72.2189L31.25 52.6189L31.2792 33.0106L31.5833 32.6272C31.7881 32.3876 32.0335 32.1859 32.3083 32.0314C32.7083 31.8356 32.8625 31.8189 34.5583 31.8189C36.55 31.8189 36.8833 31.8939 37.4 32.4606C37.5458 32.6189 42.9708 40.7939 49.4625 50.6356L69.1875 80.5189L77.1042 92.5106L77.5083 92.2481C81.3183 89.7151 84.7725 86.6841 87.7792 83.2356C94.0798 76.0243 98.1668 67.1487 99.55 57.6731C99.95 54.9231 100 54.1147 100 50.3897C100 46.6647 99.95 45.8564 99.55 43.1064C96.8333 24.3314 83.4667 8.55225 65.3458 2.70641C61.9591 1.62962 58.4718 0.899485 54.9375 0.527246C53.9958 0.427246 47.5375 0.318913 46.7292 0.402246L46.725 0.398079ZM67.1958 30.6481C67.4282 30.7651 67.6351 30.927 67.8046 31.1243C67.9741 31.3217 68.1028 31.5507 68.1833 31.7981C68.2583 32.0481 68.2792 37.4856 68.2583 49.7356L68.2292 67.3106L65.1333 62.5606L62.025 57.8106V45.0356C62.025 36.7731 62.0625 32.1314 62.1208 31.9064C62.1902 31.6462 62.3116 31.4027 62.4778 31.1907C62.6439 30.9787 62.8513 30.8026 63.0875 30.6731C63.4917 30.4647 63.6375 30.4481 65.1708 30.4481C66.6167 30.4481 66.8708 30.4689 67.1958 30.6439V30.6481Z" fill="currentColor"/>
</g>
<defs>
<clipPath id="clip0_384_395">
<rect width="100" height="100" fill="white" transform="translate(0 0.372559)"/>
</clipPath>
</defs>
</svg>
