<svg width="100" height="101" viewBox="0 0 100 101" fill="none" xmlns="http://www.w3.org/2000/svg">
<g clip-path="url(#clip0_44_2194)">
<path d="M50 100.189C48.575 100.189 47.25 99.8185 46.0125 99.1768L33.3917 91.9351C31.4959 90.9268 32.4459 90.5601 33.0167 90.3768C35.575 89.5518 36.05 89.3685 38.7084 87.8976C38.9917 87.7143 39.375 87.806 39.6584 87.9893L49.3375 93.5851C49.7125 93.7685 50.1917 93.7685 50.475 93.5851L88.3375 72.4018C88.7125 72.2185 88.9042 71.8518 88.9042 71.3935V29.1185C88.9042 28.6601 88.7167 28.2935 88.3375 28.1101L50.475 7.02264C50.0959 6.83931 49.6208 6.83931 49.3375 7.02264L11.475 28.1101C11.0959 28.2935 10.9042 28.7518 10.9042 29.1185V71.3935C10.9042 71.7601 11.0959 72.2185 11.475 72.4018L21.8167 78.181C27.4167 80.931 30.925 77.7226 30.925 74.5143V32.7893C30.925 32.2393 31.4 31.6893 32.0667 31.6893H36.9042C37.475 31.6893 38.0417 32.1476 38.0417 32.7893V74.5101C38.0417 81.756 33.9625 85.9726 26.8459 85.9726C24.6625 85.9726 22.9542 85.9726 18.1167 83.681L8.15419 78.181C6.9537 77.5208 5.9512 76.5522 5.25022 75.3751C4.54923 74.198 4.17518 72.8551 4.16669 71.4851V29.2101C4.16669 26.4601 5.68335 23.8935 8.15419 22.5185L46.0167 1.33098C47.2493 0.698837 48.6147 0.369141 50 0.369141C51.3853 0.369141 52.7507 0.698837 53.9834 1.33098L91.85 22.5143C94.3167 23.8893 95.8334 26.456 95.8334 29.206V71.481C95.8334 74.231 94.3167 76.7976 91.85 78.1768L53.9834 99.356C52.7261 99.901 51.3703 100.182 50 100.181V100.189ZM61.6708 71.1185C45.0667 71.1185 41.65 63.7851 41.65 57.5476C41.65 56.9976 42.125 56.4476 42.7875 56.4476H47.7209C48.2917 56.4476 48.7625 56.8143 48.7625 57.3643C49.525 62.2226 51.7084 64.606 61.7667 64.606C69.7375 64.606 73.1542 62.8643 73.1542 58.7393C73.1542 56.356 72.2042 54.6143 59.775 53.4226C49.4292 52.4101 42.9792 50.2143 42.9792 42.2351C42.9792 34.806 49.4292 30.4018 60.25 30.4018C72.3959 30.4018 78.375 34.4393 79.1334 43.2435C79.1249 43.5415 79.0245 43.8297 78.8459 44.0685C78.6584 44.2518 78.375 44.4351 78.0875 44.4351H73.1542C72.9145 44.4293 72.6833 44.3457 72.4954 44.1969C72.3074 44.048 72.173 43.8421 72.1125 43.6101C70.9708 38.5685 68.0292 36.9143 60.25 36.9143C51.5167 36.9143 50.475 39.8476 50.475 42.0476C50.475 44.7101 51.7084 45.5351 63.475 47.0018C75.1459 48.4685 80.65 50.5768 80.65 58.4601C80.5542 66.5351 73.725 71.1185 61.6708 71.1185Z" fill="currentColor"/>
</g>
<defs>
<clipPath id="clip0_44_2194">
<rect width="100" height="100" fill="white" transform="translate(0 0.372559)"/>
</clipPath>
</defs>
</svg>
