<svg width="100" height="101" viewBox="0 0 100 101" fill="none" xmlns="http://www.w3.org/2000/svg">
<path d="M41.0417 35.4559C39.5 34.8309 37.8333 34.5809 36.125 34.6226C35.0417 34.6226 34.0833 34.6226 33.2917 34.6642C32.4583 34.6226 31.875 34.6642 31.5833 34.7059V48.7059C32.1667 48.7476 32.7083 48.7892 33.2083 48.7892H35.4167C37.0417 48.7892 38.6667 48.5392 40.2083 48.0392C41.5417 47.6642 42.7083 46.8726 43.625 45.8309C44.5 44.7892 44.9167 43.3726 44.9167 41.5392C44.9583 40.2476 44.625 38.9559 43.9583 37.8309C43.2636 36.749 42.2418 35.917 41.0417 35.4559ZM82.2917 1.62256H17.7083C7.91667 1.62256 0 9.53923 0 19.3309V81.4101C0 91.2017 7.91667 99.1184 17.7083 99.1184H82.2917C92.0833 99.1184 100 91.2017 100 81.4101V19.3309C100 9.53923 92.0833 1.62256 82.2917 1.62256ZM51.4958 50.1642C49.8333 52.4976 47.5 54.2476 44.7917 55.2476C41.9583 56.2892 38.8333 56.6642 35.4167 56.6642C34.4167 56.6642 33.75 56.6642 33.3333 56.6226C32.9167 56.5809 32.3333 56.5809 31.5417 56.5809V69.9517C31.5833 70.2434 31.375 70.4976 31.0833 70.5392H23C22.6667 70.5392 22.5 70.3684 22.5 69.9934V27.1226C22.5 26.8309 22.625 26.6642 22.9167 26.6642C23.625 26.6642 24.2917 26.6642 25.25 26.6226C26.25 26.5809 27.2917 26.5809 28.4167 26.5392C29.5417 26.4976 30.75 26.4976 32.0417 26.4559C33.3333 26.4142 34.5833 26.4142 35.8333 26.4142C39.25 26.4142 42.0833 26.8309 44.4167 27.7059C46.5 28.4142 48.4167 29.5809 50 31.1226C51.3333 32.4559 52.375 34.0809 53.0417 35.8726C53.6625 37.6226 53.9958 39.4142 53.9958 41.2892C54 44.8726 53.1667 47.8309 51.4958 50.1642ZM81.0417 66.3726C79.875 68.0392 78.2458 69.3267 76.375 70.0851C74.3333 70.9559 71.8333 71.4101 68.8292 71.4101C66.9167 71.4101 65.0375 71.2476 63.1667 70.8726C61.7083 70.6184 60.25 70.1642 58.9167 69.5392C58.625 69.3767 58.4125 69.0851 58.4542 68.7517V61.5017C58.4542 61.3809 58.5 61.2101 58.625 61.1267C58.7458 61.0434 58.875 61.0851 59 61.1684C60.625 62.1267 62.3333 62.7976 64.1667 63.2101C65.7458 63.6267 67.4125 63.8351 69.0833 63.8351C70.6667 63.8351 71.7917 63.6226 72.5417 63.2476C73.2083 62.9559 73.6667 62.2476 73.6667 61.4976C73.6667 60.9101 73.3333 60.3726 72.6667 59.8309C72 59.2934 70.6292 58.6684 68.5875 57.8684C66.4625 57.1184 64.5083 56.1184 62.6708 54.8726C61.367 53.9387 60.2845 52.7296 59.5 51.3309C58.8378 50.0126 58.5101 48.5516 58.5458 47.0767C58.5458 45.2851 59.0458 43.5767 59.9667 42.0351C61.0083 40.3684 62.5458 39.0351 64.3375 38.2017C66.2917 37.2059 68.75 36.7476 71.7083 36.7476C73.4167 36.7476 75.1667 36.8726 76.875 37.1226C78.125 37.2892 79.3333 37.6226 80.4583 38.0809C80.6208 38.1226 80.7917 38.2892 80.875 38.4559C80.9167 38.6226 80.9583 38.7892 80.9583 38.9559V45.7476C80.9583 45.9142 80.875 46.0809 80.75 46.1642C80.375 46.2476 80.1667 46.2476 80 46.1642C78.75 45.4976 77.4167 45.0392 76 44.7476C74.4583 44.4142 72.9167 44.2059 71.3333 44.2059C70.5 44.1642 69.625 44.2892 68.8292 44.4976C68.2917 44.6226 67.8292 44.9142 67.5375 45.3309C67.3292 45.6642 67.2042 46.0809 67.2042 46.4559C67.2042 46.8309 67.3708 47.2059 67.625 47.5392C68 47.9976 68.4958 48.3726 69.0417 48.6642C69.9958 49.1642 71 49.6226 71.9958 50.0392C74.25 50.7892 76.4167 51.8309 78.4167 53.0809C79.7917 53.9517 80.9167 55.1226 81.7042 56.5392C82.3708 57.8642 82.7042 59.3309 82.6625 60.8267C82.7083 62.7892 82.125 64.7434 81.0417 66.3726Z" fill="currentColor"/>
</svg>
