<svg width="100" height="101" viewBox="0 0 100 101" fill="none" xmlns="http://www.w3.org/2000/svg">
<g clip-path="url(#clip0_98_440)">
<path d="M42.2917 35.4559C40.7276 34.8428 39.0538 34.5591 37.375 34.6226C35.8606 34.5909 34.3456 34.6187 32.8333 34.7059V48.7059L34.4583 48.7892H36.6667C38.2917 48.7892 39.9167 48.5392 41.4583 48.0392C42.7917 47.6642 43.9583 46.8726 44.875 45.8309C45.75 44.7892 46.1667 43.3726 46.1667 41.5392C46.2607 40.2434 45.9346 38.9517 45.2365 37.8559C44.5385 36.76 43.5058 35.9184 42.2917 35.4559ZM82.2917 1.62256H17.7083C13.0118 1.62256 8.50761 3.48825 5.18665 6.80921C1.86569 10.1302 0 14.6343 0 19.3309L0 81.4142C0 91.2059 7.91667 99.1226 17.7083 99.1226H82.2917C92.0833 99.1226 100 91.2059 100 81.4142V19.3309C100 9.53923 92.0833 1.62256 82.2917 1.62256ZM52.75 50.1642C51.0833 52.4976 48.75 54.2476 46.0417 55.2476C43.2083 56.2892 40.0833 56.6642 36.6667 56.6642L34.5833 56.6226L32.7917 56.5809V69.9559C32.8035 70.0248 32.8007 70.0954 32.7836 70.1632C32.7664 70.2309 32.7352 70.2944 32.692 70.3493C32.6488 70.4043 32.5946 70.4496 32.5328 70.4823C32.471 70.515 32.4031 70.5344 32.3333 70.5392H24.25C23.9167 70.5392 23.75 70.3726 23.75 69.9976V27.1226C23.75 26.8309 23.875 26.6642 24.1667 26.6642L26.5 26.6226L29.6667 26.5392L33.2917 26.4559L37.0833 26.4142C40.5 26.4142 43.3333 26.8309 45.6667 27.7059C47.75 28.4142 49.6667 29.5809 51.25 31.1226C52.5833 32.4559 53.625 34.0809 54.2917 35.8726C54.9167 37.6226 55.25 39.4142 55.25 41.2892C55.25 44.8726 54.4167 47.8309 52.75 50.1642ZM81.1667 37.0392V45.1642C81.1667 45.4976 80.9583 45.6226 80.5 45.6226C77.7509 45.5227 75.0151 46.0499 72.5 47.1642C71.7083 47.5392 70.9583 48.0392 70.375 48.7059V69.9559C70.375 70.3726 70.2083 70.5392 69.8333 70.5392H61.625C61.5483 70.551 61.47 70.5473 61.3947 70.5284C61.3195 70.5096 61.2487 70.4759 61.1866 70.4293C61.1245 70.3827 61.0724 70.3242 61.0332 70.2573C60.994 70.1903 60.9685 70.1162 60.9583 70.0392V46.7892L60.9167 43.6642L60.8333 40.4142C60.8333 39.4559 60.75 38.5392 60.6667 37.5809C60.6524 37.4822 60.674 37.3817 60.7275 37.2977C60.781 37.2136 60.8629 37.1514 60.9583 37.1226H68.375C68.7917 37.1226 69.125 37.4142 69.2083 37.7892C69.5849 39.0316 69.7676 40.3245 69.75 41.6226C71 40.1642 72.5417 38.9559 74.25 38.0392C76.1868 36.9634 78.3678 36.4038 80.5833 36.4142C80.875 36.3726 81.125 36.5809 81.1667 36.8726V37.0392Z" fill="currentColor"/>
</g>
<defs>
<clipPath id="clip0_98_440">
<rect width="100" height="100" fill="white" transform="translate(0 0.372559)"/>
</clipPath>
</defs>
</svg>
