<svg width="92" height="101" viewBox="0 0 92 101" fill="none" xmlns="http://www.w3.org/2000/svg">
<g clip-path="url(#clip0_44_2204)">
<path d="M87.6333 77.4559L47.1583 100.373V82.5142L72.3583 68.6226L87.6333 77.4559ZM90.4083 74.9767V26.9767L75.625 35.6059V66.3601L90.4083 74.8934V74.9767ZM3.10831 77.4559L43.5833 100.373V82.5142L18.3833 68.6226L3.10831 77.4559ZM0.333313 74.9767V26.9767L15.1166 35.6059V66.3601L0.333313 74.9767ZM2.02081 23.8851L43.5875 0.372559V17.6351L16.8 32.4184L2.02081 23.8851ZM88.725 23.8851L47.1583 0.372559V17.6351L73.9416 32.4184L88.725 23.8851ZM43.5875 78.4476L18.7041 64.7517V37.5684L43.6041 51.9517L43.5875 78.4476ZM47.1583 78.4476L72.0583 64.7559V37.5726L47.1583 51.9559V78.4476ZM20.3708 34.4976L45.3708 20.7059L70.3708 34.4976L45.3708 48.8851L20.3708 34.4976Z" fill="currentColor"/>
</g>
<defs>
<clipPath id="clip0_44_2204">
<rect width="91.6667" height="100" fill="white" transform="translate(0.333313 0.372559)"/>
</clipPath>
</defs>
</svg>
